# xmcd
#
# Track frame offsets:
#	150
#	14200
#	30195
#	45458
#	58900
#	73845
#	88476
#	105609
#	117674
#	134053
#	147510
#	164125
#
# Disc length: 2390 seconds
# Revision: 0
# Processed by: cddbd v1.5.2PL0 Copyright (c) Steve Scherf et al.
# Submitted via: dBpowerAMP V12.0
#
DISCID=c209540c
DTITLE=Luiz henrique e Daniel - se e pra falr de amor
DYEAR=2008
DGENRE=
TTITLE0=quem ama faz loucuras
TTITLE1=se é para falar de amor
TTITLE2=tudo ou nada
TTITLE3=vendaval de ilusões
TTITLE4=e sempre assim
TTITLE5=e uma loucura
TTITLE6=pra te esquecer nao da
TTITLE7=ciumenta
TTITLE8=tarde de mais
TTITLE9=batom vermelho
TTITLE10=vá viver a sua vida
TTITLE11=ciumento de mais
EXTD=
EXTT0=
EXTT1=
EXTT2=
EXTT3=
EXTT4=
EXTT5=
EXTT6=
EXTT7=
EXTT8=
EXTT9=
EXTT10=
EXTT11=
PLAYORDER=
